<svg width="188" height="160" viewBox="0 0 188 160" fill="none" xmlns="http://www.w3.org/2000/svg">
<path d="M9.60824 123.713L12.995 97.303L16.3539 122.765L9.60824 123.713ZM18.3966 88.1001L8.23875 89.5257L0.373413 142.051L7.32498 141.076L8.63896 130.829L17.2955 129.614L18.5724 139.498L26.0699 138.447L18.3966 88.1001Z" fill="white"/>
<path d="M38.8696 107.264L38.8974 92.5686L42.3049 92.0903C44.963 91.7183 46.1196 93.1716 46.1127 96.8454L46.1057 100.813C46.0988 104.928 44.3916 106.49 41.5971 106.882L38.8696 107.264ZM42.5224 84.7127L31.4138 86.2723L31.3189 137.707L38.8164 136.656L38.8581 114.614L41.4467 114.251C44.8566 113.772 46.1474 115.133 46.1381 119.909L46.1196 129.313C46.1127 133.5 46.3857 134.272 46.7905 135.536L54.4245 134.463C53.6773 132.659 53.6125 130.831 53.6171 128.334L53.6333 119.295C53.6449 113.491 52.4235 109.842 48.6782 109.119V108.971C52.0209 107.033 53.5963 103.433 53.6056 98.1416L53.6125 94.9831C53.6264 87.0464 50.2929 83.6221 42.5224 84.7127Z" fill="white"/>
<path d="M68.0408 103.167L68.0685 88.472L71.4784 87.9938C74.1364 87.6218 75.2908 89.0751 75.2838 92.7489L75.2769 96.7161C75.2699 100.831 73.5627 102.393 70.7705 102.786L68.0408 103.167ZM71.6958 80.6185L60.5849 82.1781L60.4901 133.613L67.9876 132.562L68.0292 110.519L70.6201 110.157C74.0277 109.678 75.3208 111.039 75.3116 115.815L75.2931 125.219C75.2861 129.406 75.5568 130.177 75.9639 131.441L83.5979 130.369C82.8507 128.565 82.786 126.737 82.7906 124.239L82.8068 115.2C82.8183 109.396 81.5969 105.748 77.8516 105.025V104.877C81.1944 102.938 82.7675 99.3409 82.7767 94.0474L82.7837 90.8889C82.7975 82.9521 79.4663 79.5279 71.6958 80.6185Z" fill="white"/>
<path d="M97.2559 77.0303L89.7584 78.0839L89.6635 129.517L97.161 128.465L97.2559 77.0303Z" fill="white"/>
<path d="M126.973 72.8596L120.088 73.8254L115.036 114.937L110.137 75.2233L102.572 76.2838L109.699 126.705L119.654 125.307L126.973 72.8596Z" fill="white"/>
<path d="M137.471 105.764L140.86 79.3545L144.219 104.817L137.471 105.764ZM146.259 70.1516L136.104 71.5772L128.238 124.103L135.19 123.128L136.504 112.881L145.16 111.665L146.437 121.55L153.935 120.498L146.259 70.1516Z" fill="white"/>
<path d="M166.776 67.2727L159.279 68.324L159.182 119.759L179.018 116.975L179.032 109.627L166.693 111.358L166.776 67.2727Z" fill="white"/>
<path d="M127.283 0.249532L11.2646 16.5343C7.27645 17.0934 4.03779 21.0329 4.02853 25.3352L3.94062 72.7615C3.93368 77.0614 7.16079 80.0929 11.1467 79.5337L127.165 63.249C129.95 62.8585 132.49 60.7767 133.693 57.8977L144.212 32.7127C145.151 30.4646 145.156 28.0038 144.224 26.0191L133.795 3.77543C132.601 1.23152 130.066 -0.140951 127.283 0.249532Z" fill="#17161A"/>
<path d="M48.736 16.8992L42.0551 17.8373L41.9973 48.6253L34.4882 18.9001L25.2187 20.2009L25.1238 71.6361L31.8048 70.698L31.8741 33.1493L41.0743 69.3971L48.6389 68.3343L48.736 16.8992Z" fill="white"/>
<path d="M76.473 13.0061L56.0277 15.8758L55.9305 67.3109L76.3781 64.4412L76.392 57.0937L63.4419 58.9121L63.472 43.1126L73.764 41.6685L73.7779 34.3209L63.4859 35.765L63.5113 22.1697L76.4614 20.3536L76.473 13.0061Z" fill="white"/>
<path d="M116.688 7.36133L110.213 8.26938L106.729 49.0159L103.192 9.25598L95.0143 10.402L91.3245 51.1786L87.9933 11.3886L80.7665 12.4029L85.5111 63.1588L95.4631 61.7632L99.0048 25.9312L102.417 60.7858L111.754 59.4757L116.688 7.36133Z" fill="white"/>
<path d="M47.9635 145.697C46.0296 145.97 44.9955 147.363 44.9932 149.503C44.9909 151.06 45.5507 152.114 47.2094 153.459C48.5072 154.503 48.9398 155.143 48.9375 156.273C48.9351 157.285 48.5187 157.696 47.8872 157.784C47.2533 157.874 46.8578 157.576 46.8601 156.603L46.8624 155.667L44.9816 155.931L44.9793 156.71C44.9747 158.891 45.9486 160 47.9011 159.727C49.8535 159.452 50.9038 158.059 50.9084 155.838C50.9107 154.145 50.3717 153.11 48.7107 151.765C47.413 150.718 46.9642 150.081 46.9642 149.087C46.9665 148.151 47.3436 147.728 47.9774 147.641C48.609 147.553 48.9698 147.872 48.9675 148.844L48.9652 149.547L50.8436 149.283V148.717C50.8529 146.541 49.8975 145.425 47.9635 145.697Z" fill="#17161A"/>
<path d="M58.3736 144.431L52.9511 145.194L52.9257 158.828L58.3481 158.068L58.3504 156.12L54.9174 156.603L54.9244 152.414L57.6541 152.031L57.6564 150.083L54.929 150.467L54.9359 146.862L58.3689 146.379L58.3736 144.431Z" fill="#17161A"/>
<path d="M65.7624 143.394L60.3399 144.156L60.3145 157.791L65.7369 157.031L65.7415 155.083L62.3085 155.566L62.3155 151.377L65.0429 150.993L65.0475 149.045L62.3178 149.429L62.3247 145.825L65.76 145.342L65.7624 143.394Z" fill="#17161A"/>
<path d="M80.5792 141.314L78.8627 141.555L77.9397 152.359L77.0028 141.818L74.8329 142.121L73.8567 152.932L72.9707 142.382L71.0576 142.652L72.3137 156.107L74.9532 155.737L75.8924 146.238L76.7946 155.478L79.2722 155.132L80.5792 141.314Z" fill="#17161A"/>
<path d="M88.6019 140.189L86.6147 140.466L86.6055 146.019L84.4726 146.319L84.4818 140.767L82.4947 141.046L82.4692 154.681L84.4564 154.404L84.468 148.267L86.6009 147.967L86.5893 154.103L88.5764 153.824L88.6019 140.189Z" fill="#17161A"/>
<path d="M92.8677 148.706L93.7653 141.703L94.6559 148.454L92.8677 148.706ZM95.1995 139.263L92.5045 139.642L90.4202 153.567L92.2616 153.309L92.6109 150.591L94.9057 150.27L95.2458 152.89L97.2329 152.611L95.1995 139.263Z" fill="#17161A"/>
<path d="M103.909 138.04L97.7627 138.902L97.7604 140.85L99.8377 140.559L99.8146 152.248L101.804 151.968L101.825 140.279L103.905 139.988L103.909 138.04Z" fill="#17161A"/>
<path d="M108.008 137.465L106.021 137.745L106.017 139.887L106.704 139.789L105.94 142.234L106.863 142.105L108.006 139.392L108.008 137.465Z" fill="#17161A"/>
<path d="M113.086 136.557C111.155 136.827 110.121 138.22 110.116 140.362C110.114 141.92 110.671 142.973 112.33 144.318C113.628 145.362 114.06 146.002 114.058 147.132C114.056 148.144 113.639 148.556 113.008 148.643C112.376 148.731 111.978 148.435 111.98 147.463L111.983 146.527L110.104 146.79L110.102 147.569C110.097 149.75 111.071 150.859 113.024 150.587C114.976 150.312 116.024 148.918 116.029 146.698C116.031 145.004 115.492 143.969 113.833 142.624C112.533 141.578 112.085 140.94 112.087 139.949C112.089 139.013 112.469 138.59 113.1 138.502C113.732 138.415 114.093 138.733 114.09 139.706L114.088 140.409L115.966 140.145V139.579C115.976 137.398 115.022 136.284 113.086 136.557Z" fill="#17161A"/>
<path d="M128.102 134.644L126.332 134.893L126.318 143.054L124.327 135.173L121.868 135.519L121.842 149.154L123.614 148.907L123.633 138.953L126.071 148.56L128.077 148.281L128.102 134.644Z" fill="#17161A"/>
<path d="M135.91 133.549L130.487 134.309L130.462 147.946L135.884 147.183L135.889 145.235L132.453 145.718L132.463 141.529L135.19 141.146L135.192 139.198L132.465 139.581L132.472 135.977L135.905 135.496L135.91 133.549Z" fill="#17161A"/>
<path d="M147.023 131.989L145.304 132.229L144.383 143.031L143.444 132.49L141.277 132.795L140.298 143.604L139.414 133.056L137.497 133.325L138.757 146.781L141.394 146.411L142.334 136.913L143.238 146.153L145.713 145.804L147.023 131.989Z" fill="#17161A"/>
<path d="M183.562 36.3773L147.96 41.375C147.081 41.4974 146.278 42.149 145.889 43.0547L142.505 50.8991C141.746 52.6574 142.859 54.4342 144.568 54.1939L183.541 48.7225C184.429 48.5977 185.244 47.9323 185.628 47.0127L187.263 43.0986C187.564 42.3824 187.564 41.5945 187.268 40.9614L185.646 37.5048C185.262 36.6892 184.45 36.2525 183.562 36.3773Z" fill="#17161A"/>
<path d="M149.794 43.4616C148.656 43.621 148.05 44.439 148.048 45.7005C148.045 46.6178 148.374 47.2347 149.35 48.0272C150.113 48.6418 150.368 49.0185 150.368 49.6816C150.368 50.2777 150.123 50.518 149.75 50.5712C149.38 50.6243 149.146 50.451 149.146 49.878V49.3281L148.041 49.4829V49.9404C148.038 51.225 148.612 51.8766 149.759 51.7172C150.909 51.5555 151.524 50.7375 151.527 49.4297C151.529 48.4339 151.212 47.8239 150.236 47.0314C149.473 46.4168 149.207 46.0425 149.207 45.4579C149.207 44.9057 149.433 44.6585 149.803 44.6053C150.176 44.5522 150.389 44.7416 150.386 45.3147V45.7282L151.49 45.5734V45.2407C151.492 43.9561 150.93 43.3022 149.794 43.4616Z" fill="white"/>
<path d="M156.054 42.6968L154.886 42.8608L154.879 46.1256L153.625 46.3012L153.63 43.0364L152.461 43.2005L152.445 51.2204L153.616 51.0563L153.623 47.4473L154.876 47.2717L154.87 50.8807L156.04 50.7167L156.054 42.6968Z" fill="white"/>
<path d="M158.867 49.2888C158.495 49.3419 158.261 49.1571 158.263 48.5817L158.272 44.2055C158.272 43.6325 158.508 43.3807 158.881 43.3298C159.253 43.2767 159.487 43.4615 159.485 44.0369L159.475 48.4131C159.473 48.9861 159.239 49.2356 158.867 49.2888ZM158.881 42.1861C157.733 42.3479 157.104 43.1681 157.102 44.4505L157.095 48.6672C157.093 49.9519 157.72 50.5965 158.867 50.4348C160.017 50.273 160.644 49.4528 160.646 48.1681L160.653 43.9514C160.655 42.669 160.028 42.0244 158.881 42.1861Z" fill="white"/>
<path d="M162.871 45.3469L162.876 42.8838L163.429 42.8052C163.801 42.7521 164.003 42.9092 164.003 43.4799L164 44.4319C164 45.0049 163.797 45.2175 163.424 45.2706L162.871 45.3469ZM163.429 41.6592L161.708 41.9018L161.694 49.9217L162.862 49.7577L162.869 46.4929L163.422 46.4143C164.59 46.2503 165.166 45.4716 165.169 44.187L165.171 43.3967C165.171 42.1144 164.599 41.4952 163.429 41.6592Z" fill="white"/>
<path d="M171.697 40.4995L170.656 40.6451L170.646 45.4487L169.476 40.8114L168.03 41.0148L168.016 49.0347L169.057 48.8891L169.069 43.0342L170.503 48.6858L171.683 48.5194L171.697 40.4995Z" fill="white"/>
<path d="M174.51 47.0937C174.137 47.1469 173.904 46.962 173.906 46.3867L173.915 42.0105C173.915 41.4375 174.151 41.1857 174.524 41.1348C174.896 41.0817 175.13 41.2665 175.127 41.8419L175.118 46.218C175.118 46.791 174.882 47.0406 174.51 47.0937ZM174.524 39.9888C173.376 40.1505 172.747 40.9708 172.745 42.2531L172.738 46.4699C172.735 47.7545 173.362 48.3992 174.51 48.2375C175.659 48.0757 176.286 47.2555 176.289 45.9708L176.296 41.7541C176.298 40.474 175.673 39.8271 174.524 39.9888Z" fill="white"/>
<path d="M182.676 38.9583L181.665 39.1015L181.124 45.4532L180.573 39.254L179.296 39.4342L178.72 45.7905L178.202 39.5867L177.075 39.7438L177.816 47.6598L179.365 47.4426L179.918 41.8534L180.45 47.2901L181.906 47.0845L182.676 38.9583Z" fill="white"/>
<path d="M137.721 26.1484C135.232 26.4973 133.207 28.9557 133.203 31.6406C133.198 34.3254 135.213 36.2178 137.702 35.8689C140.194 35.52 142.216 33.0616 142.22 30.3767C142.225 27.6895 140.21 25.7972 137.721 26.1484Z" fill="white"/>
<path d="M144.531 13.0776C143.798 13.1816 143.069 13.3688 142.352 13.6368C141.591 13.9233 141.145 14.836 141.385 15.5984C141.563 16.1622 142.072 16.4741 142.63 16.3956C142.711 16.384 142.794 16.3632 142.877 16.3355C143.192 16.2246 143.513 16.1345 143.842 16.0629C144.036 16.0213 144.228 15.9866 144.42 15.9589C148.432 15.3951 151.793 18.1077 152.059 22.2505C152.336 26.5874 149.109 30.8527 144.848 31.7746C144.656 31.8162 144.464 31.8508 144.274 31.8762C142.843 32.0773 141.492 31.8601 140.335 31.3102C139.99 31.1461 139.606 31.093 139.218 31.1484C138.963 31.1854 138.706 31.2663 138.459 31.3933C137.591 31.8416 137.395 33.0962 138.109 33.6138C139.509 34.6258 141.182 35.1803 142.956 35.2219C143.465 35.2335 143.978 35.2034 144.49 35.1318C145.76 34.9539 147.025 34.5218 148.219 33.8518C149.891 32.9114 151.363 31.5366 152.487 29.8684C153.611 28.1979 154.347 26.294 154.62 24.3416C154.893 22.3891 154.694 20.4598 154.044 18.75C153.394 17.0402 152.311 15.6054 150.914 14.5933C149.514 13.5813 147.842 13.0268 146.067 12.9875C145.556 12.976 145.043 13.006 144.531 13.0776Z" fill="#17161A"/>
</svg>
